<svg width="512" height="512" xmlns="http://www.w3.org/2000/svg">

 <g>
  <title>background</title>
  <rect fill="none" id="canvas_background" height="402" width="582" y="-1" x="-1"/>
 </g>
 <g>
  <title>Layer 1</title>
  <path fill="#ffffff" id="svg_2" d="m256.8,5c74.3,0 148.6,0 222.9,0c19.2,0 31.3,12 31.3,31.1c0,147.3 0,294.6 0,441.9c0,18.8 -12.1,31 -30.8,31c-148.8,0 -297.6,0 -446.4,0c-18.5,0 -30.8,-12.2 -30.8,-30.6c0,-147.6 0,-295.3 0,-442.9c0,-18.4 12.3,-30.5 30.8,-30.5c74.4,0 148.7,0 223,0zm-36.5,368c-1.5,-0.4 -2.3,-0.6 -3.1,-0.7c-14.8,-2.5 -29.2,-6.1 -42.9,-12.8c-30.1,-14.9 -48.1,-38.7 -51.2,-72.1c-1.5,-16.3 -0.5,-33 0.8,-49.4c1.5,-18.3 6.7,-35.6 20.6,-49.1c1.1,-1.1 1.2,-4.3 0.6,-6.2c-6.2,-17.3 -5.6,-34.6 -0.2,-52c2.1,-6.6 2.4,-6.7 9.2,-4.4c11.9,3.9 21.6,11 29.8,20.2c4.4,4.9 8.5,10.1 11.9,14.2c7,-2.6 13.3,-5.7 20,-7.2c21.7,-5 43.7,-4.2 65.7,-2.9c13.7,0.8 27.2,2.7 38.6,10.9c5,-5.9 9.7,-11.9 15,-17.4c8.2,-8.5 17.8,-15 29.3,-18.3c3.7,-1.1 6.2,-0.6 7.6,3.7c5.7,17.8 6.7,35.7 -0.2,53.3c-1.4,3.5 -0.6,5.6 1.7,7.8c9,8.6 13.9,19.4 16.6,31.3c5.1,22.6 6.3,45.6 3.4,68.6c-3,23.9 -14.2,43.7 -33.7,58.5c-16.1,12.3 -34.6,18.9 -54.4,22.3c-2.9,0.5 -5.7,1.1 -8.9,1.7c8.4,12.1 11.3,25.1 11.5,38.8c0.3,25.7 0.1,51.3 0.1,77c0,1.9 0,3.9 0,6.4c2.4,0 4.2,0 6,0c55.2,0 110.3,0 165.5,0c11.9,0 17.7,-5.9 17.7,-17.9c0,-146.8 0,-293.6 0,-440.5c0,-11.9 -5.9,-17.7 -17.8,-17.7c-148.5,-0.1 -296.6,-0.1 -444.8,-0.1c-11.9,0 -17.7,5.8 -17.7,17.8c0,146.8 0,293.6 0,440.5c0,11.9 5.8,17.8 17.8,17.8c56,0 112,0 168,0c1.8,0 3.6,0 5.4,0c0,-16.1 0,-31.7 0,-47.4c-5.8,0.6 -11.3,1.5 -16.7,1.8c-29.3,1.7 -52.7,-8.6 -67.1,-34.9c-9.9,-18 -18.5,-36.6 -36.2,-48.6c-0.9,-0.6 -2.1,-2.6 -1.7,-3.2c0.6,-1.1 2.2,-2.3 3.4,-2.4c4.6,-0.1 9.4,-0.4 13.9,0.5c13.4,2.7 22.3,11.4 29.9,22.4c5.1,7.4 10.8,15.1 17.9,20.5c15.8,12 34,13.3 52.8,7.8c2.8,-0.8 4.3,-2.1 4.7,-5.4c1,-11.7 3.3,-23.1 11.2,-33.2z"/>
 </g>
</svg>