<?xml version="1.0" standalone="no"?>
<!DOCTYPE svg PUBLIC "-//W3C//DTD SVG 20010904//EN"
 "http://www.w3.org/TR/2001/REC-SVG-20010904/DTD/svg10.dtd">
<svg version="1.0" xmlns="http://www.w3.org/2000/svg"
 width="460.000000pt" height="460.000000pt" viewBox="0 0 460.000000 460.000000"
 preserveAspectRatio="xMidYMid meet">
<metadata>
Created by potrace 1.11, written by Peter Selinger 2001-2013
</metadata>
<g transform="translate(0.000000,460.000000) scale(0.100000,-0.100000)"
fill="#000000" stroke="none">
<path d="M1033 4436 c-22 -7 -55 -23 -71 -35 -31 -22 -78 -88 -69 -97 2 -3 14
11 25 30 22 37 104 86 143 86 19 0 20 -2 8 -16 -12 -15 -11 -16 9 -10 12 3 31
9 42 12 35 10 22 -9 -64 -95 -67 -67 -89 -83 -106 -78 -17 4 -24 0 -32 -24 -5
-16 -13 -29 -18 -29 -12 0 -19 38 -14 78 l4 37 -12 -40 c-8 -30 -8 -57 0 -107
7 -37 9 -81 6 -97 -8 -41 12 -41 67 -1 23 16 45 28 49 25 4 -3 10 -19 14 -36
5 -26 9 -30 29 -26 28 8 93 -28 121 -66 18 -24 21 -43 22 -120 0 -57 -4 -102
-13 -119 -12 -24 -68 -57 -165 -96 -29 -12 -33 -23 -18 -57 7 -17 9 -15 9 11
1 36 28 52 103 61 27 3 45 10 42 15 -4 6 18 35 49 66 30 32 78 91 107 132 29
41 66 86 82 99 27 22 28 24 12 42 -33 37 11 111 78 131 37 11 42 10 55 -8 7
-10 12 -28 9 -39 -3 -11 -1 -45 3 -75 6 -47 4 -62 -17 -105 -34 -68 -114 -143
-206 -190 -52 -26 -89 -54 -114 -84 -34 -42 -36 -43 -45 -23 -14 32 -55 29
-67 -4 -7 -19 -7 -31 1 -40 13 -15 64 -20 54 -5 -6 11 13 26 22 17 11 -11 -20
-36 -61 -48 -38 -11 -39 -12 -13 -16 15 -2 27 -10 27 -18 0 -12 -4 -13 -21 -3
-31 16 -52 -6 -25 -27 24 -17 15 -29 -12 -15 -19 10 -52 68 -52 91 0 7 -15
-16 -34 -51 -27 -51 -40 -65 -65 -72 -18 -4 -34 -14 -38 -22 -16 -42 37 -145
74 -145 12 0 13 8 8 40 -8 48 0 52 19 8 7 -18 51 -69 98 -113 49 -47 89 -94
96 -113 11 -31 10 -33 -16 -43 -73 -28 -103 -49 -178 -124 -121 -121 -169
-233 -181 -425 -5 -83 -2 -107 21 -193 32 -118 88 -216 167 -297 67 -68 126
-105 227 -141 l75 -26 -32 -22 c-54 -39 -87 -37 -174 9 -57 31 -84 52 -103 81
-13 22 -32 39 -42 39 -10 0 -50 -25 -88 -55 -38 -30 -94 -66 -124 -80 -30 -15
-76 -40 -102 -57 -38 -24 -48 -36 -48 -58 0 -21 -7 -30 -31 -40 -37 -16 -60
-49 -57 -81 3 -21 -4 -25 -55 -39 -45 -12 -63 -23 -77 -46 -17 -27 -32 -34
-130 -59 -79 -20 -115 -34 -125 -48 -8 -12 -13 -22 -12 -23 2 -2 973 -6 2160
-10 l2157 -7 0 34 c0 50 -15 95 -52 156 -31 50 -34 53 -74 53 -47 0 -101 16
-126 38 -13 11 -18 30 -18 66 0 34 -11 75 -30 121 -40 92 -39 103 10 122 36
14 40 19 40 51 0 23 -12 53 -32 85 l-32 50 29 52 c36 68 30 94 -33 136 -26 18
-66 50 -90 71 -45 41 -68 53 -141 69 -54 12 -76 30 -103 83 -16 31 -19 50 -14
87 l6 47 -42 24 c-38 21 -43 28 -46 63 -2 33 2 45 23 65 25 24 30 51 19 107
-5 24 -23 40 -90 84 -132 84 -149 100 -146 142 2 32 -2 38 -30 53 -88 45 -121
38 -141 -33 -15 -50 -32 -65 -41 -36 -6 17 -88 84 -179 146 -39 27 -74 36 -62
17 3 -5 -1 -33 -9 -62 -8 -29 -20 -72 -26 -96 -6 -23 -25 -58 -41 -77 -31 -35
-97 -81 -105 -73 -2 3 4 25 15 49 71 162 48 402 -56 588 -47 84 -151 188 -228
226 -53 27 -70 30 -152 30 -90 0 -92 0 -149 -40 -34 -23 -68 -57 -81 -80 -38
-69 -47 -54 -54 90 -3 72 -11 143 -18 158 -6 16 -11 60 -11 98 0 116 -24 152
-131 195 -221 89 -414 123 -502 91 -23 -9 -60 -21 -83 -26 -23 -6 -62 -27 -87
-46 l-45 -34 -6 37 c-3 20 -8 56 -12 79 -3 23 -15 49 -25 59 -25 23 -111 28
-166 10z m145 -189 c8 -16 12 -31 9 -33 -9 -9 -67 26 -67 40 0 37 39 32 58 -7z
m74 -60 c-3 -20 9 -45 42 -92 65 -91 67 -96 19 -83 -50 13 -63 25 -63 57 0 14
-7 48 -15 75 -19 64 -19 78 3 74 12 -2 16 -11 14 -31z m-103 7 c51 -20 71 -51
71 -112 0 -51 -27 -102 -54 -102 -23 0 -48 37 -41 59 7 24 -7 28 -24 7 -14
-16 -63 -18 -73 -2 -14 20 -8 36 12 36 11 0 20 5 20 10 0 6 -5 10 -11 10 -7 0
-8 11 -4 31 10 43 -16 34 -29 -9 -9 -32 -29 -42 -41 -21 -10 15 2 52 26 82 17
22 29 27 65 27 24 0 61 -7 83 -16z m521 -224 c-6 -11 -35 -48 -66 -81 -62 -71
-128 -195 -128 -244 0 -26 15 -53 62 -115 34 -44 62 -85 62 -90 0 -11 -19 -17
-104 -30 -37 -6 -99 -17 -138 -25 -38 -8 -76 -15 -84 -15 -12 0 -54 54 -54 70
0 3 21 28 46 55 54 58 64 81 64 140 0 43 2 46 59 84 64 44 122 106 151 161 19
38 20 40 20 70 0 21 40 37 93 39 25 1 27 -1 17 -19z m40 -142 c61 -31 63 -56
12 -112 -72 -78 -72 -80 5 -129 61 -40 105 -88 91 -102 -3 -3 -45 -13 -93 -23
l-88 -17 -26 34 c-14 18 -45 56 -69 84 -24 29 -45 61 -48 73 -7 29 59 167 93
193 33 27 68 26 123 -1z m371 -78 c6 -43 6 -43 9 -10 2 34 3 34 10 -11 12 -71
25 -86 89 -109 79 -29 121 -66 161 -142 37 -70 73 -120 137 -190 56 -61 56
-78 1 -78 -24 0 -53 -3 -65 -6 -19 -5 -23 -2 -23 18 0 17 -18 41 -58 79 -101
94 -247 218 -310 264 -34 25 -68 55 -76 67 -20 32 -37 103 -30 122 10 27 56
46 104 43 l45 -2 6 -45z m-168 -92 c13 -54 21 -98 17 -98 -7 0 -60 177 -60
200 0 36 21 -14 43 -102z m-59 50 c32 -114 48 -188 42 -203 -10 -27 -45 -17
-67 20 -12 20 -47 51 -80 71 -32 20 -59 40 -59 43 0 10 124 120 137 121 6 0
18 -24 27 -52z m541 -15 l16 -28 -4 28 c-6 39 28 36 53 -5 l20 -33 0 28 c0 27
1 27 28 13 16 -8 45 -33 66 -56 28 -32 35 -46 30 -63 -6 -19 -5 -20 10 -8 9 8
18 12 19 10 36 -46 48 -74 44 -95 -3 -19 -1 -24 10 -20 19 8 60 -81 44 -97
-15 -15 -14 -27 3 -27 18 0 26 -31 26 -106 0 -93 -17 -163 -54 -224 -38 -63
-84 -92 -136 -88 -30 3 -36 7 -40 33 -4 21 -8 26 -14 17 -4 -7 -5 -19 -2 -27
8 -21 -17 -19 -46 4 l-24 20 74 78 c108 114 107 112 86 172 -29 80 -1 81 57 1
18 -24 34 -39 36 -33 3 7 -14 34 -36 61 -48 57 -51 76 -13 96 l27 15 -29 1
c-26 0 -28 2 -22 30 5 28 4 30 -15 19 -32 -17 -45 2 -32 46 15 49 8 44 -17
-12 -11 -25 -22 -44 -25 -42 -2 3 -8 33 -14 68 -14 89 -35 107 -25 22 l7 -63
-29 18 -29 18 23 -25 c31 -35 28 -38 -19 -26 -34 8 -46 18 -68 56 -14 25 -48
69 -75 98 -45 49 -48 55 -38 78 7 14 15 24 19 23 5 -2 20 10 35 25 34 34 53
34 73 0z m-1079 -39 c-3 -9 -6 -30 -6 -48 0 -22 -11 -47 -31 -72 -35 -45 -47
-52 -106 -70 -44 -13 -44 -13 -37 9 3 12 15 31 25 43 11 11 19 24 19 30 1 14
41 60 84 93 43 34 61 39 52 15z m1380 -119 l15 -30 -21 25 c-11 14 -28 39 -36
55 l-15 30 21 -25 c11 -14 28 -38 36 -55z m-691 25 c4 -6 1 -18 -6 -26 -11
-13 -14 -13 -25 8 -20 35 -18 51 5 38 11 -5 23 -15 26 -20z m86 -64 c-1 -3 -1
-10 -1 -16 0 -11 -49 -14 -74 -4 -20 8 -20 28 0 49 15 14 19 14 46 -3 16 -11
29 -22 29 -26z m670 -89 c11 -38 -5 -23 -19 18 -22 65 -23 69 -6 41 9 -16 20
-43 25 -59z m-1747 38 c-4 -8 -8 -15 -10 -15 -2 0 -4 7 -4 15 0 8 4 15 10 15
5 0 7 -7 4 -15z m176 -33 c0 -15 -2 -15 -11 -2 -8 11 -12 12 -16 3 -2 -7 -18
-13 -35 -13 -25 0 -28 2 -18 14 11 14 57 25 73 18 4 -2 7 -11 7 -20z m-127 -9
c-7 -2 -19 -2 -25 0 -7 3 -2 5 12 5 14 0 19 -2 13 -5z m792 -48 c6 -22 33 -82
60 -133 33 -66 45 -96 37 -104 -14 -14 -82 -1 -82 15 0 17 -32 60 -107 146
-35 39 -63 75 -63 80 0 10 106 40 129 38 8 -1 19 -20 26 -42z m84 18 c20 -51
80 -257 76 -262 -12 -12 -51 44 -101 142 -65 130 -67 147 -20 147 27 0 36 -5
45 -27z m-1009 -71 c5 -18 5 -30 0 -27 -15 9 -32 75 -24 93 6 14 8 13 11 -8 3
-14 8 -40 13 -58z m27 56 c-3 -8 -6 -5 -6 6 -1 11 2 17 5 13 3 -3 4 -12 1 -19z
m199 14 c6 -4 20 -31 30 -60 l19 -54 -24 -19 c-53 -43 -121 -10 -145 69 -7 26
-11 53 -9 60 6 13 110 17 129 4z m-142 -44 c15 -94 73 -141 147 -119 23 7 43
10 46 7 7 -6 -16 -97 -28 -110 -9 -11 -153 117 -180 160 -26 43 -25 104 1 104
4 0 10 -19 14 -42z m1077 26 c4 -2 12 -32 19 -66 10 -53 24 -94 67 -195 3 -9
-4 -13 -21 -13 -31 0 -52 36 -89 155 -42 137 -42 137 -10 129 16 -4 31 -8 34
-10z m-333 -90 c46 -52 86 -102 89 -109 7 -21 -28 -19 -107 5 -36 11 -128 39
-205 61 -154 45 -199 64 -175 73 37 14 258 64 285 65 26 0 42 -13 113 -95z
m751 80 c3 -2 -1 -10 -7 -16 -14 -14 -43 -1 -50 22 -4 10 3 11 24 6 16 -4 31
-10 33 -12z m268 -16 c-3 -8 -6 -5 -6 6 -1 11 2 17 5 13 3 -3 4 -12 1 -19z
m-458 -24 c17 -14 31 -30 31 -34 0 -5 -16 -17 -36 -26 -35 -17 -37 -17 -50 1
-8 10 -14 27 -14 36 0 10 -3 24 -6 33 -10 26 40 20 75 -10z m468 -101 c-2 -21
-4 -6 -4 32 0 39 2 55 4 38 2 -18 2 -50 0 -70z m-411 36 c10 -16 -47 -70 -71
-67 -33 5 -30 35 7 58 37 22 54 25 64 9z m-876 -95 c41 -12 119 -36 173 -53
55 -16 101 -32 104 -35 3 -3 -13 -26 -36 -53 -30 -33 -41 -54 -39 -72 3 -24 7
-26 48 -24 25 1 62 2 83 3 21 1 63 -4 93 -11 44 -10 58 -18 70 -41 36 -69 116
-76 198 -17 26 19 61 44 78 56 l31 23 49 -36 c63 -47 139 -75 205 -77 29 -1
53 -5 53 -11 0 -11 -61 -133 -97 -194 -28 -48 -30 -48 -121 -5 -51 24 -54 24
-67 7 -8 -11 -15 -26 -15 -34 0 -8 -14 -26 -30 -40 -62 -51 -86 -77 -105 -115
-11 -22 -26 -46 -33 -53 -7 -8 -31 -42 -54 -76 -23 -33 -62 -88 -88 -122 -38
-48 -49 -70 -54 -115 -7 -57 -49 -145 -78 -163 -13 -8 -22 -6 -36 7 -25 23
-49 21 -104 -8 -33 -17 -55 -23 -76 -19 -19 4 -33 1 -40 -8 -7 -7 -22 -26 -34
-41 -18 -22 -36 -30 -88 -38 -89 -15 -109 -14 -127 4 -14 14 -11 16 33 22 184
24 335 124 425 280 44 76 80 199 86 295 12 195 -87 429 -230 541 -66 53 -153
96 -225 113 -57 12 -57 13 -63 54 -3 23 -13 50 -22 60 -9 10 -17 22 -17 26 0
10 61 -2 150 -30z m860 -24 c-6 -12 -14 -19 -17 -17 -2 3 1 15 7 27 6 12 14
19 17 17 2 -3 -1 -15 -7 -27z m-1066 4 c25 -24 19 -32 -24 -32 -43 -1 -55 18
-22 37 23 14 28 14 46 -5z m979 -172 c15 -16 14 -20 -18 -45 -19 -15 -36 -27
-39 -27 -8 0 -7 75 1 83 12 13 40 7 56 -11z m-945 -74 c7 -7 12 -30 12 -51 0
-29 4 -38 14 -34 10 4 21 -29 44 -136 49 -225 48 -207 16 -207 -22 0 -25 3
-16 12 7 7 12 19 12 27 0 12 -3 12 -12 3 -7 -7 -15 -12 -19 -12 -9 0 -35 97
-60 230 -12 63 -25 126 -30 138 -15 38 12 57 39 30z m207 -26 c-3 -3 -11 0
-18 7 -9 10 -8 11 6 5 10 -3 15 -9 12 -12z m1205 3 c-7 -8 -17 -15 -23 -15 -6
0 -2 7 9 15 25 19 30 19 14 0z m-1536 -17 c2 -13 15 -72 29 -132 l25 -109 -91
91 -91 91 24 26 c29 31 36 31 62 3 l19 -23 -6 28 c-3 15 -3 32 0 37 11 17 24
11 29 -12z m326 -13 c8 -10 10 -30 5 -61 -7 -51 9 -55 20 -4 8 38 17 38 50 -2
21 -25 25 -38 20 -65 -6 -32 6 -45 21 -21 7 11 53 -65 54 -90 0 -7 -15 -19
-32 -27 -39 -16 -49 -25 -42 -36 3 -5 19 -2 35 7 43 22 55 13 64 -42 6 -39 4
-49 -11 -57 -16 -9 -16 -11 1 -23 15 -11 17 -23 12 -72 -2 -33 -10 -69 -17
-81 l-11 -22 -30 26 c-17 14 -38 25 -47 25 -12 -1 -7 -10 18 -30 19 -17 38
-30 42 -30 13 0 9 -29 -7 -61 -14 -25 -19 -28 -36 -19 -19 11 -20 9 -14 -22 5
-27 2 -38 -19 -57 l-26 -24 -17 39 c-11 26 -18 34 -20 22 -3 -9 1 -27 8 -39
10 -20 9 -25 -11 -41 -28 -23 -56 -23 -69 0 -8 15 -11 14 -20 -10 -7 -18 -18
-28 -31 -28 -22 0 -27 -15 -7 -23 6 -3 -7 -6 -31 -6 -52 -1 -58 9 -42 84 7 36
8 61 2 67 -5 5 -13 -16 -20 -58 -6 -37 -15 -71 -20 -76 -4 -4 -26 -2 -48 6
-41 14 -45 25 -30 76 7 23 5 22 -21 -8 l-28 -33 -43 36 c-23 20 -42 40 -42 44
0 4 26 36 57 72 l58 64 -54 -48 c-76 -68 -86 -72 -105 -45 -20 28 -20 47 -1
54 27 11 16 26 -13 19 -27 -5 -29 -3 -41 36 -7 22 -11 42 -9 43 2 2 12 8 23
14 19 11 18 11 -6 12 -24 0 -27 5 -38 57 -6 31 -8 60 -4 63 5 4 61 2 126 -3
109 -9 140 -7 124 9 -3 3 -59 10 -123 15 -65 5 -122 13 -128 19 -10 10 5 135
19 148 3 3 19 1 35 -5 25 -9 30 -9 30 3 0 8 -11 20 -25 26 -30 14 -32 24 -5
38 11 6 20 18 20 26 0 8 5 24 11 35 10 19 17 14 104 -65 51 -47 98 -86 104
-86 10 0 20 -30 41 -125 6 -27 20 -65 31 -83 10 -19 17 -38 14 -43 -11 -16 5
-10 39 16 18 14 38 25 45 25 6 0 16 -11 21 -25 10 -27 30 -34 30 -10 0 8 9 15
19 15 10 0 29 8 42 19 32 26 29 62 -20 266 -23 92 -41 174 -41 181 0 19 44 18
60 -1z m104 -47 c14 -18 23 -34 21 -37 -7 -6 -43 28 -68 63 l-20 28 21 -11
c11 -6 32 -25 46 -43z m74 -110 c26 -43 38 -83 23 -74 -13 8 -51 80 -51 96 0
17 8 11 28 -22z m61 -193 c0 -26 -2 -25 -15 15 -17 57 -17 85 1 45 8 -16 14
-43 14 -60z m-15 -198 c-9 -40 -19 -66 -21 -60 -3 7 0 27 6 45 5 18 13 56 18
83 5 32 9 42 11 26 2 -12 -4 -55 -14 -94z m-53 -149 c-23 -38 -108 -123 -93
-93 6 11 22 31 37 45 15 14 36 43 48 65 11 22 22 34 24 28 3 -7 -4 -28 -16
-45z"/>
<path d="M718 1216 c-60 -22 -84 -42 -109 -93 -33 -66 -32 -153 2 -213 36 -65
68 -84 149 -88 61 -4 75 -1 114 22 59 35 86 90 86 177 -1 110 -43 172 -135
198 -50 14 -61 13 -107 -3z m86 -77 c34 -16 60 -85 53 -141 -10 -74 -52 -109
-114 -93 -68 17 -69 207 -1 235 31 12 33 12 62 -1z"/>
<path d="M107 1128 c-4 -51 -10 -141 -13 -200 l-7 -108 45 0 45 0 7 123 c4 68
4 135 1 150 -6 22 -4 27 10 27 12 0 16 -6 12 -20 -3 -10 8 -76 25 -145 l30
-125 38 0 c43 0 38 -10 91 187 12 45 26 80 31 77 4 -3 8 -66 8 -140 l0 -134
51 0 51 0 -6 100 c-3 55 -9 145 -12 200 l-6 100 -67 0 -67 0 -29 -115 c-16
-64 -31 -118 -35 -120 -3 -2 -18 50 -34 116 l-27 119 -68 0 -68 0 -6 -92z"/>
<path d="M1022 1078 c5 -163 18 -206 70 -238 41 -25 135 -27 182 -5 18 9 42
33 54 54 20 35 22 54 22 185 l0 146 -50 0 -50 0 0 -138 c0 -154 -9 -182 -59
-182 -55 0 -65 26 -69 181 l-4 139 -50 0 -51 0 5 -142z"/>
<path d="M1430 1020 l0 -200 45 0 45 0 1 138 0 137 70 -137 69 -138 50 0 50 0
0 200 0 200 -46 0 -47 0 5 -127 6 -128 -64 128 -64 127 -60 0 -60 0 0 -200z"/>
<path d="M1820 1175 l0 -45 50 0 50 0 0 -155 0 -155 50 0 50 0 0 155 0 155 50
0 50 0 0 45 0 45 -150 0 -150 0 0 -45z"/>
<path d="M2215 1208 c-13 -40 -105 -368 -105 -377 0 -6 21 -11 49 -11 l49 0
12 50 12 51 51 -3 51 -3 15 -47 15 -48 54 0 c39 0 53 3 49 13 -2 6 -28 96 -58
199 l-54 188 -68 0 c-45 0 -69 -4 -72 -12z m99 -186 c7 -31 7 -32 -28 -32 -40
0 -43 8 -25 75 18 70 21 72 34 30 7 -22 16 -55 19 -73z"/>
<path d="M2530 1020 l0 -200 50 0 50 0 0 200 0 200 -50 0 -50 0 0 -200z"/>
<path d="M2700 1020 l0 -200 45 0 44 0 3 138 3 137 67 -137 67 -138 55 0 56 0
0 200 0 200 -45 0 -45 0 0 -127 -1 -128 -61 128 -61 127 -64 0 -63 0 0 -200z"/>
<path d="M3230 1020 l0 -200 88 0 c152 0 212 33 212 117 0 37 -5 50 -30 73
l-31 29 26 25 c47 48 27 120 -41 146 -14 6 -70 10 -125 10 l-99 0 0 -200z
m171 120 c22 -12 25 -43 7 -58 -7 -5 -28 -13 -45 -17 l-33 -7 0 46 c0 43 2 46
26 46 14 0 34 -5 45 -10z m13 -166 c35 -35 2 -84 -56 -84 -27 0 -28 2 -28 50
l0 50 34 0 c19 0 42 -7 50 -16z"/>
<path d="M3600 1020 l0 -200 50 0 50 0 0 200 0 200 -50 0 -50 0 0 -200z"/>
<path d="M3770 1020 l0 -200 50 0 50 0 0 59 c0 42 5 65 18 82 l19 22 44 -81
44 -82 58 0 58 0 -24 43 c-14 23 -43 75 -66 114 l-42 73 61 82 61 83 -52 3
c-28 2 -57 1 -64 -1 -6 -3 -31 -39 -55 -81 -24 -42 -47 -76 -52 -76 -4 0 -8
36 -8 80 l0 80 -50 0 -50 0 0 -200z"/>
<path d="M4150 1020 l0 -200 130 0 130 0 0 45 0 45 -80 0 -80 0 0 35 0 35 70
0 70 0 0 45 0 45 -70 0 -70 0 0 35 0 35 75 0 75 0 0 40 0 40 -125 0 -125 0 0
-200z"/>
<path d="M1974 770 c-102 -22 -168 -66 -210 -142 -27 -50 -29 -60 -29 -168 0
-99 3 -121 22 -156 31 -59 79 -101 142 -125 70 -28 254 -35 386 -17 l90 13 3
163 2 162 -150 0 -150 0 0 -55 0 -54 68 -3 67 -3 3 -53 c3 -49 1 -53 -25 -63
-15 -6 -55 -9 -88 -7 -127 8 -190 75 -189 203 0 112 49 180 141 200 49 10 112
-11 131 -46 17 -29 18 -29 110 -29 l94 0 -7 33 c-22 103 -98 148 -264 153 -58
2 -124 -1 -147 -6z"/>
<path d="M22 713 c11 -32 63 -168 114 -303 l92 -245 115 -3 114 -3 68 173 c37
95 91 233 121 306 l52 132 -92 0 -93 0 -74 -206 c-75 -208 -85 -232 -92 -224
-2 3 -38 99 -79 215 l-74 210 -97 3 -97 3 22 -58z"/>
<path d="M770 465 l0 -305 90 0 90 0 0 305 0 305 -90 0 -90 0 0 -305z"/>
<path d="M1080 465 l0 -305 90 0 89 0 3 118 3 117 35 3 c52 5 105 -14 118 -42
6 -14 16 -63 23 -110 l12 -86 100 0 c98 0 99 0 93 23 -3 12 -13 60 -22 107
-24 124 -34 141 -108 165 -16 5 -10 10 31 30 62 28 83 63 83 136 0 46 -4 55
-37 89 -51 51 -102 60 -328 60 l-185 0 0 -305z m349 171 c14 -13 21 -31 21
-57 0 -52 -27 -69 -116 -72 l-69 -2 -3 79 -3 78 75 -4 c55 -2 80 -8 95 -22z"/>
<path d="M2520 465 l0 -305 90 0 90 0 0 305 0 305 -90 0 -90 0 0 -305z"/>
<path d="M2830 465 l0 -305 80 0 80 0 0 217 c0 119 4 213 8 208 5 -6 53 -103
108 -217 l99 -208 128 0 127 0 0 305 0 305 -75 0 -75 0 0 -210 c0 -116 -4
-210 -8 -210 -4 0 -53 95 -109 210 l-101 210 -131 0 -131 0 0 -305z"/>
<path d="M3590 465 l0 -305 90 0 90 0 0 305 0 305 -90 0 -90 0 0 -305z"/>
<path d="M3981 478 c-68 -161 -126 -299 -128 -306 -4 -10 15 -12 87 -10 l92 3
22 55 22 55 134 0 134 0 21 -55 21 -55 103 -3 c95 -2 102 -1 97 15 -4 10 -62
146 -129 303 l-123 285 -115 3 -115 3 -123 -293z m273 44 c20 -59 36 -113 36
-120 0 -9 -24 -12 -85 -12 -48 0 -85 4 -85 10 0 19 83 230 90 230 5 0 24 -48
44 -108z"/>
</g>
</svg>
