<svg width="25.600005" height="25.600001" xmlns="http://www.w3.org/2000/svg">

 <g>
  <title>background</title>
  <rect fill="none" id="canvas_background" height="27.600001" width="27.600005" y="-1" x="-1"/>
 </g>
 <g>
  <title>Layer 1</title>
  <path fill="#000000" fill-rule="evenodd" stroke="#ffffff" id="path3176" d="m11.92164,25.07941l0,-9.92978l-1.80046,0c-0.22079,0 -0.39998,-0.17922 -0.39998,-0.40005l0,-2.97318c0,-0.26349 0.19946,-0.39471 0.39998,-0.39577l1.80152,-0.00107l0,-1.6002c0,-0.84384 0.0096,-2.36083 0.79997,-3.32842c0.79784,-0.98573 1.90286,-1.64714 3.72785,-1.64714c2.81161,0 4.0233,0.37551 4.06703,0.38938c0.19093,0.06081 0.30825,0.25497 0.27305,0.45233l-0.55037,3.04465c-0.04267,0.23042 -0.27199,0.37657 -0.49811,0.31577c-5.20497,0 -0.87144,-0.2347 -1.67034,-0.2347c-0.48638,0 -1.22448,0.10455 -1.22448,0.68488l0,1.92024l3.11134,0c0.23359,0 0.41705,0.20056 0.39785,0.43313l-0.24319,2.97317c-0.01707,0.20802 -0.18986,0.36698 -0.39785,0.36698l-2.86815,0l0,9.92978c0,0.22082 -0.18026,0.40005 -0.39998,0.40005l-4.1257,0c-0.22079,0 -0.39998,-0.17923 -0.39998,-0.40005zm4.12569,-0.40006l0,-9.92977c0,-0.21976 0.1792,-0.40005 0.39999,-0.40005l2.89908,0l0.17812,-2.17308l-3.0772,0c-0.22079,0 -0.39999,-0.17921 -0.39999,-0.40005l0,-2.32029c0,-0.55793 0.28266,-0.95478 0.69224,-1.18948c0.38505,-0.21975 0.87036,-0.2955 1.33221,-0.2955c0.45652,0 0.92476,0.06614 1.27995,0.13122l0.17386,0.03413l0.40852,-2.26055l-0.12799,-0.02454c-0.55998,-0.10454 -1.64367,-0.24749 -3.3556,-0.24749c-1.58287,0 -2.45963,0.55154 -3.10814,1.35163c-0.57918,0.70943 -0.61971,1.91278 -0.61971,2.82383l0,2.00025c0,0.22082 -0.18026,0.40005 -0.39998,0.40005l-1.80153,0l0,2.16987l1.80046,0c0.21973,0 0.39998,0.18029 0.39998,0.40005l0,9.92977l3.32573,0z"/>
  <path fill="#000000" fill-rule="evenodd" stroke="#ffffff" id="path3178" d="m0,23.261578l0,-20.923151c0,-1.289761 1.047423,-2.338431 2.338034,-2.338431l20.923937,0c1.289547,0 2.338034,1.04867 2.338034,2.338431l0,20.923151c0,1.290824 -1.048487,2.338425 -2.338034,2.338425l-20.923937,0c-1.29061,0 -2.338034,-1.047601 -2.338034,-2.338425zm24.800039,0l0,-20.923151c0,-0.847041 -0.691175,-1.538332 -1.538069,-1.538332l-20.923937,0c-0.847964,0 -1.538069,0.691291 -1.538069,1.538332l0,20.923151c0,0.848104 0.690105,1.538325 1.538069,1.538325l20.923937,0c0.846894,0 1.538069,-0.690221 1.538069,-1.538325z"/>
 </g>
</svg>